/* XPM */
static char *c5b0b97d687f446ba31f434636bebfeaTyFSCke7FwQz5TfH[] = {
/* columns rows colors chars-per-pixel */
"64 64 8 1 ",
"  c #2F2F2E",
". c #54443B",
"X c #7C4E2E",
"o c #494949",
"O c #5A5A59",
"+ c #696967",
"@ c #99643E",
"# c #B97F56",
/* pixels */
"+++++++++OOO++OO+OOOOoO++++++++++++++++++OOO++OO+OOOOoO+++++++++",
"OOOOOOOOOOOOOOOOOOOOOo+OOOOOOOOOOOOOOOOOOOOOOOOOOOOOOo+OOOOOOOOO",
"OOOOOOOOOOOOOOOOOOOOOo+OOOOOOOOOOOOOOOOOOOOOOOOOOOOOOo+OOOOOOOOO",
"OOOOOOOOOOOOOOOOOOOOOo+OOOOOOOOOOOOOOOOOOOOOOOOOOOOOOo+OOOOOOOOO",
"OOOOOOOOOOOOOOOOOOOOOo+OOOOOOOOOOOOOOOOOOOOOOOOOOOOOOo+OOOOOOOOO",
"OOOOOOOOOOOOOOOOOOOOOo+OOOOOOOOOOOOOOOOOOOOOOOOOOOOOOo+OOOOOOOOO",
"OOOOOOOOOOOOOOOOOOOOOo+OOOOOOOOOoOOOOOOOOOOOOOOOOOOOOo+OOOOOOOOO",
"OOOOOOOOOOOoooOOOOOOOo+OOOOOOOOOOOOOOOOOOOOoooOOOOOOOo+OOOOO++OO",
"OOOOOOOOOOOoooOOOOOOOo+OOOOOOOOOOOOOOOOOOOOoooOOOOOOOo+OOOOO++OO",
"OOOOOOOOOOOOOOOOOOOOOo+OOOOOOOOOOOOOOOOOOOOOOOOOOOOOOo+OOOOOOOOO",
"OOOOOOOOOOOOOOOOOOOOOo+OOOOOOOOOOOOOOOOOOOOOOOOOOOOOOo+OOOOOOOOO",
"OOOOOOOOOOOOOOOOOOOOOo+OOOOOOOOOOOOOOOOOOOOOOOOOOOOOOo+OOOOOOOOO",
"OOOOOOOOOOOOOOOOOOOOOo+OOOOOOOOOOOOOOOOOOOOOOOOOOOOOOo+OOOOOOOOO",
"OOOOOOOOOOOOOOOOOOOOOo+OOOOOOOOOOOOOOOOOOOOOOOOOOOOOOo+OOOOOOOOO",
"OOOOOOOOOOOOOOOOOOOOOo+OOOOOOOOOOOOOOOOOOOOOOOOOOOOOOo+OOOOOOOOO",
"OOOOOOOOOOOOOOOOOOOOOo+OOOOOOOOOOOOOOOOOOOOOOOOOOOOOOo+OOOOOOOOO",
"OOOOOOOOOOOOOOOOOOOOOo+OOOOOOOoOOOOOOOOOOOOOOOOOOOOOOo+OOOOOOOOO",
"OOOOOOOOOOOOOOOOOOOOOo+OOOOOOOOOOOOOOOOOOOOOOOOOOOOOOo+OOOO+ooOO",
"OOOOOOOOOOOOOOOOOOOOOo+OOOOOOOOOOOOOOOOOOOOOOOOOOOOOOo+OOOO+ooOO",
"OOOOOOOOOOOOOOOOOOOOOo+OOOOOOOOOOOOOOOOOOOOOOOOOOOOOOo+OOOO+ooOO",
"OOOOOOOOOOOOOOOOOOOOOo+OOOOOOOOOOOOOOOOOOOOOOOOOOOOOOo+OOOOOOOOO",
"OOOOOOOOOOOOOOOOOOOOOo+OOOOOOOOOOOOOOOOOOOOOOOOOOOOOOo+OOOOOOOOO",
"OOOOOOOOOOOOOOOOOOOOOo+OOOOOOOOOOOOOOOOOOOOOOOOOOOOOOo+OOOOOOOOO",
"OOOOOOOooOOOOOOOOOOOOo+OOOOOOOOOOOOOOOOooOOOOOOOOOOOOo+OOOOOOOOO",
"OOOOOOOooOOOOOOOOOOOOo+OO   OOOOOOOOO   oOOOOOOOOOOOOo+OOOOOOOOO",
"OOOOOOOOOOOOOOOOOOOOOo+O ### OOOOOOO ### OOOOOOOOOOOOo+OOOOOOOOO",
"OOOOOOOOOOOOOOOOOOOOOo+O X@@ OOOOOOO X@@ OOOOOOOOOOOOo+OOOOOOOOO",
"OOOOOOOOOOOOOOOOOOOOOo+O X@@         X@@ OOOOOOOOOOOOo+OOOOOOOOO",
"OOOOOOOOOOOOOOOOOOOOOo+O X@@##########@@ OOOOOOOOOOOOo+OOOOOOOOO",
"OOOOOOOOOOOOOOOOOOOOOo+O X@@@@@@@@@@@@@@ OOOOOOOOOOOOo+OOOOOOOOO",
"OOOOOOOOOOOOOOOOOOOOOo+O X@@         X@@ OOOOOOOOOOOOo+OOOOOOOOO",
"oooooooooooooooooooooooo X@@         X@@ ooooooooooooooooooooooo",
"+++++++++OOO++OO+OOOOo.. X@@##########@@ ..O++OO+OOOOo++++OOO+++",
"OOOOOOOOOOOOOOOOOOOOO... X@@@@@@@@@@@@@@ ...OOOOOOOOOo+OOOOOOOOO",
"OOOOOOOOOOOOOOOOOOOO.... X@@         X@@ ....OOOOOOOOo+OOOOOOOOO",
"OOOOOOOOOOOOOOOOOOOO..   XXX         XXX   ..OOOOOOOOo+OOOOOOOOO",
"OOOOOOOOOOOOOOOOOOOOO                       OOOOOOOOOoOOOO+OOOOO",
"OOOOOOOOOOOOOOOOOOOOOo                     OOOOOOOOOOoOOOOOOOOOO",
"OOOOOOOOOOOOOOOOOOOOOoOO                 OooooOOOOOOOoOOOOOOOOOO",
"OOOOOOOOOOOoooOOOOOOOoOOOOO           OOOOooooOOOOOOOoOOOOOOOOOO",
"OOOOOOOOOOOoooOOOOOOOo+OOOOOOOOOOOOOOOOOOOOoooOOOOOOOo+OOOOOOOOO",
"OOOOOOOOOOOOOOOOOOOOOo+OOOOOOOOOOOOOOOOOOOOOOOOOOOOOOo+OOOOOOOOO",
"OOOOOOOOOOOOOOOOOOOOOo+OOOOOoOOOOOOOOOOOOOOOOOOOOOOOOo+OOOO+OOOO",
"OOOOOOOOOOOOOOOOOOOOOo+OOOOooOOOOOOOOOOOOOOOOOOOOOOOOo+OOOOOOOOO",
"OOOOOOOOOOOOOOOOOOOOOo+OOOOooOOOOOOOOOOOOOOOOOOOOOOOooOOOOOooOOO",
"OOOOOOOOOOOOOOOOOOOOOo+OOOOOOOOOOOOOOOOOOOOOOOOOOOOooo+OOOOooOOO",
"OOOOOOOOOOOOOOOOOOOOOo+OOOOOOOOOOOOOOOOOOOOOOOOOOOOooo+OOOOOOOOO",
"OOOOOOOOOOOOOOOOOOOOOo+OOOOOOOOOOOOOOOOOOOOOOOOOOOoooooooooooooo",
"OOOOOOOOOOOOOOOOOOOOOoOOOOOOOOOO+oOOOOOOOOOOOOOOOOoooo+++++O++OO",
"OOOOOOOOOOOOOOOOOOOOOoOOOOOOOOOO+ooOOOOOOOOOOOOOOo+Ooo+OOOOOOOOO",
"OOOOOOOOOOOOOOOOOOOOOoOOOOOOOoOO+ooOOOOOOOOOOOOOOoOOOo+OOOOOOOOO",
"OOOOOOOOOOOOOOOOOOOOOo+OOOOOOOOOOOOOOOOOOOOOOOOOo+OOOo+OOOOOOOOO",
"OOOOOOOOOOOOOOOOOOOOOoOOOOOOOOOOOOOOOOOOOOOOOOOOoOOOOo+OOOOOOOOO",
"OOOOOOOOOOOOOOOOOOOOOoOOOOOOOOOOOOOOOOOOOOOOOOOo+OOOOo+OOOOOOOO+",
"OOOOOOOOOOOOOOOOOOOOOoOOOOOOOOOOOOOOOOOOOOOOOOo+OOOOOoOOOOOOOOOO",
"OOOOOOOooOOOOOOOOOOOOoOOOOOOOOOOOOOOOOOOOOOOOooOOOOOOoOOOOOOOOOO",
"OOOOOOOooOOOOOOOOOOOOoOOOOoooOOOOOOOOOOOOOOoo+OoOOOOOoOOOOOOOOOO",
"OOOOOOOOOOOOOOOOOOOOOoOOOOoooOOOOOOOOOOOOOo+OOOOoOOOOo+OOoOOOOOO",
"OOOOOOOOOOOOOOOOOOOOOoOOOOOOOOOOOOooOOOOOo+OOOOOoOooooOOOooOOOOO",
"OOOOOOOOOOOOOOOOOOOOOoOOOOOOOOOOOOooOOOOo+OOOOOOOoooooOOOooOOOO+",
"OOOOOOOOOOOOOOOOOOOOOoOOOOOOOOOOOOOOOOOOo+OOOOOOOoooooOOOOOOOOO+",
"OOOOOOOOOOOOOOOOOOOOOo+OOOOOOOOOOOOOOoOo+OOOOOOOooooooOOOOOOOOOO",
"OOOOOOOOOOOOOOOOOOOOOo+OOOOOOOOOOOOOOOOo+OOOOOOOooooooOOOOOOOOOO",
"oooooooooooooooooooooooooooooooooooooooooooooooooooooooooooooooo"
};
