/* XPM */
static char *_f033ae41c2c4225830d6a943ccd1a15F4EPodqV2QXqBFEO[] = {
/* columns rows colors chars-per-pixel */
"128 128 5 1 ",
"  c None",
". c #591C0A",
"X c #FF3C00",
"o c #FFA619",
"O c #FFEC91",
/* pixels */
"                                                                                                                                ",
"                                                                                                                                ",
"                                                                                                                                ",
"                                                                                                                                ",
"                                                                                                                                ",
"                                                                                                                                ",
"                                                                                                                                ",
"                                                                                                                                ",
"                                                                                                                                ",
"                                                                                                                                ",
"                                                                                                                                ",
"                                                                                                                                ",
"                                                                                                                                ",
"                                                                                                                                ",
"                                                                                                                                ",
"                                                                                                                                ",
"                                                                                                                                ",
"                                                     .........                                                                  ",
"                                                     .........                                                                  ",
"                                               .......................                                                          ",
"                                               .......................                                                          ",
"                                               .......................                                                          ",
"                                               .......................                                                          ",
"                                               .......................                                                          ",
"                                               ........................................                                         ",
"                                                XXXXXXXXXXXXXXX........................                                         ",
"                                                XXXXXXXXXXXXXXXXXXX....................                                         ",
"                                                XXXXXXXXXXXXXXXXXXX...............................                              ",
"                                                 XXXXXXXXXXXXXXXXXX...............................                              ",
"                                 ........     ..............XXXXXXX...............................                              ",
"                                 ........     ..............XXX...................................                              ",
"                                 ...........................XX....................................                              ",
"                              ..............................XX....................................                              ",
"                              ..............................XX.......................XXXX.........                              ",
"                              ......................................XXXX.............XXXX.........                              ",
"                              ......................................XXXX.............XXXX.........                              ",
"                              ......................................XXXX.............XXXX.........                              ",
"                              .................................XXXXXXXXXXXXXXXXXXXXXXXXXXXXXXXXXXX                              ",
"                              ................................XXXXXXXXXXXXXXXXXXXXXXXXXXXXXXXXXXXX                              ",
"                               XXXXXXXXXXXXXXXXXXXXXXXXXXXXX..XXXXXXXXXXXXXXXXXXXXXXXXXXXXXXXXXXXX                              ",
"                               XXXXXXXXXXXXXXXXXXXXXXXXXXXXX......XXXXXXXXXXXXXXXXXXXXXXXXXXXXXXXX                              ",
"                                 XXXXXXXXXXXXXXXXXXXXXXXXXXX......XXXXXXXXXXXXXXXXXXXXXXXXXXXXXXXX                              ",
"                                    XXXXXXXXXXXXXXXXXXXXXXXX.........XXXXXXXXXXXXXXXXXXXXXXXXXXXXX                              ",
"                                    XXXXXXXXXXXXXXXXXXXX................XXXXXXXXXXXXXXXXXXXXXXXXXX                              ",
"                                    ..........................................................                                  ",
"                                    ..........................................................                                  ",
"                                    ..........................................................                                  ",
"                                    ..........................................................                                  ",
"                                  ............................................................                                  ",
"                                ......................................................                                          ",
"                                ......................................................                                          ",
"                                ......................................................                                          ",
"                                ...XXXX.......................XXXX...................                                           ",
"                                ...XXXXXXXXXXXXXXXXXXXXXXXXXXXXXXX...................                                           ",
"                                ...XXXXXXXXXXXXXXXXXXXXXXXXXXXXXXX...................                                           ",
"                                   XXXXXXXXXXXXXXXXXXXXXXXXXXXXXXX...................                                           ",
"                                       XXXXXXXXXXXXXXXXXXXXXXXXXXX.................................                             ",
"                                       XXXXXXXXXXXXXXXXXXXXXXXXXXX.................................                             ",
"                                       XXXXXXXXXXXXXXXXXXXXXXXXXXX.................................                             ",
"                                       XXXXXXXXXXXXXXXXXXXXXXXXXXX.......................................                       ",
"                                           XXXXXXXXXXXXXXXXXXXXXXX.......................................                       ",
"                                           XXXXXXXXXXXXXXXXXXX...........................................                       ",
"                                           XXXXXXXXXXXXXXXXXXX...........................................                       ",
"                                           XXXXXXXXXXXXXXXXXXX...........................................                       ",
"                                                XXXXXXXXXXXXXX...........................................                       ",
"                              ..................XXXXXXXXXXXX.............................................                       ",
"                              .......................................................................oooo                       ",
"                              .......................................oooo...ooooo....................oooo                       ",
"                          ...........................................oooo...ooooo....ooooo....ooo....oooo                       ",
"                          .......................................oooooooo...oooooooooooooo....ooooooooooo                       ",
"                          .......................................oooooooooooooooooooooooooooooooooooo                           ",
"                    .............................................ooooooooooooooooooooooooooooooooooo                            ",
"                    .............................................ooooooooooooooooooooooooooooooooooo                            ",
"                    .............................................oooooooooooooooooooooooooooooooooo                             ",
"                    .............................................ooooooooooooooooooooooooooooooooo                              ",
"                    .............................................oooooooooooooooooooooooooooooooo                               ",
"                    .............................................oooooooooOOoooooooooooOOOOoooo                                 ",
"                    ..............................................ooooooooOOOOOOooooooOOOooooo                                  ",
"                    .................................oooo...........oooooooOOOOOoooooooooooo                                    ",
"                    ........................oooo.....oooo..............ooooooOOOoooooooo..                                      ",
"                           ......oooo.......oooo.....oooo.....ooooo........oooooooooo.....                                      ",
"                           ......oooo.....ooooooooooooooo.....ooooooooooo.................                                      ",
"                           ......oooo.....oooooooooooooooooo..ooooooooooo.................                                      ",
"                           ......oooo.....oooooooooooooooooo..ooooooooooo................                                       ",
"                             oooooooooooooooooooooooooooooooooooooooooooo...............                                        ",
"                               ooooooooooooooooooooooooooooooooooooooooooooooooo.......                                         ",
"                               ooooooooooooooooooooooooooooooo.ooooooooo..oooooooooo..                                          ",
"                                oooooooooooooooooooooooooooooo.ooooooooo..ooooooooooooo                                         ",
"                                 ooooooooooooooooooooo.........ooooooooo..ooooo....ooooo                                        ",
"                                     ooooooooooooooooo.........ooooooooo...........oooo.o                                       ",
"                                     oooooooooo...oooo.............................oooo...                                      ",
"                                     oooooo............................................... OO                                   ",
"                               OOOOOO  ................................................... OOOOOO                               ",
"                           OOOOOOO     ...................................................    OOOOOOO                           ",
"                        OOOOO          ...................................................         OOOOO                        ",
"                      OOOO             ...................................................            OOOO                      ",
"                     OOO                  ................................................              OOO                     ",
"                    OOO                   ................................................               OOO                    ",
"                   OOO                    ...............................................O                OOO                   ",
"                   OOO                    ..............................................OO                OOO                   ",
"                   OOOO                   O...........................................OOOO               OOOO                   ",
"                    OOOO                  OOO......................................OOOOOOO              OOOO                    ",
"                     OOOOO                OOOOOO.................................OOOOOOOOO            OOOOO                     ",
"                      OOOOOOO             OOOOOOOOOOOOOO....................OOOOOOOOOOO            OOOOOOO                      ",
"                        OOOOOOOOOO        OOOOOOOOOOOOOOOOOOOOOOOOOOOOOOOOOOOOOOOOOOOOO       OOOOOOOOOO                        ",
"                           OOOOOOOOOOOOO  OOOOOOOOOOOOOOOOOOOOOOOOOOOOOOOOOOOOOOOOOOOOO OOOOOOOOOOOOO                           ",
"                               OOOOOOOOOOOOOOOOOOOOOOOOOOOOOOOOooooOOOOOOOOOOOOOOOOOOOOOOOOOOOOOO                               ",
"                                   OOOOOOOOOOOOOOOOOOOOOOOOOOOOOOOOOOOOOOOOOOOOOOOOOOOOOOOOOO                                   ",
"                                         OOOOOOOOOOOOOOOOOOOOOOOOOOOOOOOOOOOOOOOOOOOOOOOOO                                      ",
"                                          OOOOOOOOOOOOOOOOOOOOOOOOOOOOOOOOOOOOOOOOOOOOOOOO                                      ",
"                                          OOOOOOOOOooooooOOOOOOOOOOOOOOOOOOOOOOOOOOOOOOOOO                                      ",
"                                          OOOOOOOOOOOOOOOOOOOOOOOOOOOOooooOOOOOOOOOOOOOOOO                                      ",
"                                              OOOOOOOOOOOOOOOOOOOOOOOOooooOOOOOOOOOOO                                           ",
"                                              OOOOOOOOOOOOOOOOOOOOOOOOooooOOOOOOOOOOO                                           ",
"                                              OOOOOOOOOOOOOOOOOOOOOOOOOOOOOOOOOOOOOOO                                           ",
"                                              OOOOOOOOOOOOOOOOOOOOOOOOOOOOOOOOOOOOO                                             ",
"                                              OOOOOOOOOOOOOOOOOOOOOOOOOOOOOOOOOOOOO                                             ",
"                                                   OOOOOOOOOOOOOOOOOOOOOOOOOOOOOOOO                                             ",
"                                                   OOOOOOOOOOOOOOOOOOOOOOOOOOOOOOOO                                             ",
"                                                   OOOOOOOOOOOOOOOOOOOOOOOOOOOOOOOO                                             ",
"                                                    OOOOOOOOOOOOOOOOOOOOOOO                                                     ",
"                                                             OOOOOOOOOO                                                         ",
"                                                                                                                                ",
"                                                                                                                                ",
"                                                                                                                                ",
"                                                                                                                                ",
"                                                                                                                                ",
"                                                                                                                                "
};
