/* XPM */
static char *_0877bdcf5ee4fb2f848801a9d91cc3caESNvtd3I9wqk9hl[] = {
/* columns rows colors chars-per-pixel */
"64 64 231 2 ",
"   c None",
".  c black",
"X  c #030200",
"o  c gray1",
"O  c #040301",
"+  c #060400",
"@  c #040404",
"#  c #090602",
"$  c #0C0803",
"%  c #0D0803",
"&  c #0D0904",
"*  c gray5",
"=  c #0E0E0E",
"-  c #120B01",
";  c #130C01",
":  c #130D01",
">  c #140D01",
",  c #140E02",
"<  c #171006",
"1  c #161307",
"2  c #181206",
"3  c #1F1609",
"4  c #1D1909",
"5  c #161616",
"6  c #181818",
"7  c #201509",
"8  c #281B0B",
"9  c #291C0C",
"0  c #201D18",
"q  c #2F2005",
"w  c #26200C",
"e  c #2B230D",
"r  c #2B240D",
"t  c #3C2A07",
"y  c #31220E",
"u  c #32220E",
"i  c #34250E",
"p  c #262018",
"a  c #352D11",
"s  c #3B2911",
"d  c #3C2911",
"f  c #202020",
"g  c gray13",
"h  c #2F2D2A",
"j  c #343434",
"k  c #353535",
"l  c #3F3E3D",
"z  c #3E3E3E",
"x  c #573C0A",
"c  c #452F13",
"v  c #453014",
"b  c #493314",
"n  c #4E3515",
"m  c #4D3615",
"M  c #4E3616",
"N  c #443A17",
"B  c #4E3718",
"V  c #4C381D",
"C  c #4D381E",
"Z  c #573C13",
"A  c #563C16",
"S  c #573D19",
"D  c #573D1A",
"F  c #40382E",
"G  c #4A3E2D",
"H  c #53471C",
"J  c #5D421D",
"K  c #5E431D",
"L  c #5D421E",
"P  c #61430C",
"I  c #65460C",
"U  c #68480C",
"Y  c #714E0B",
"T  c #724F0D",
"R  c #60421B",
"E  c #6C4A18",
"W  c #765416",
"Q  c #7F5B16",
"!  c #79541B",
"~  c #584024",
"^  c #594726",
"/  c #5F4C29",
"(  c #4B4133",
")  c #4B483C",
"_  c #534937",
"`  c #614521",
"'  c #604525",
"]  c #654E22",
"[  c #6A4A20",
"{  c #684A25",
"}  c #6F4F26",
"|  c #714F24",
" . c #635421",
".. c #795423",
"X. c #7C5623",
"o. c #785426",
"O. c #795527",
"+. c #7C5624",
"@. c #726126",
"#. c gray28",
"$. c #484848",
"%. c #80580F",
"&. c #825A0F",
"*. c #80591C",
"=. c #805A1C",
"-. c #835B1E",
";. c #865D1C",
":. c #8D6211",
">. c #8E6316",
",. c #916414",
"<. c #9B6B12",
"1. c #996A19",
"2. c #9B6C1A",
"3. c #A06F1B",
"4. c #B67E14",
"5. c #B67E15",
"6. c #B47D16",
"7. c #B47D17",
"8. c #865D20",
"9. c #865D26",
"0. c #885E27",
"q. c #8C6224",
"w. c #8D6326",
"e. c #8C6229",
"r. c #8F6329",
"t. c #816C2A",
"y. c #816D2B",
"u. c #916525",
"i. c #946727",
"p. c #956825",
"a. c #916428",
"s. c #916529",
"d. c #936529",
"f. c #926629",
"g. c #936629",
"h. c #92662A",
"j. c #93662A",
"k. c #93672A",
"l. c #93662B",
"z. c #956728",
"x. c #94672A",
"c. c #94662B",
"v. c #94672B",
"b. c #96682A",
"n. c #996A28",
"m. c #9A6B29",
"M. c #9E6E28",
"N. c #987826",
"B. c #907A30",
"V. c #A67322",
"C. c #A77420",
"Z. c #A37125",
"A. c #A77426",
"S. c #A87525",
"D. c #AB7725",
"F. c #AF7A24",
"G. c #AF7C26",
"H. c #AF7C27",
"J. c #B27C20",
"K. c #B37D23",
"L. c #B77E21",
"P. c #B57E23",
"I. c #B17B24",
"U. c #B07B25",
"Y. c #B87F21",
"T. c #9C8535",
"R. c #B48520",
"E. c #BB8221",
"W. c #BC8220",
"Q. c #A08735",
"!. c #AB913A",
"~. c #AF953D",
"^. c #B69130",
"/. c #BC9530",
"(. c #BE9731",
"). c #B1973E",
"_. c #C28719",
"`. c #C0851F",
"'. c #C4881D",
"]. c #C4881E",
"[. c #CC8D1B",
"{. c #CF8E1B",
"}. c #C98B1D",
"|. c #CD8E1C",
" X c #D19119",
".X c #D1911B",
"XX c #D3931B",
"oX c #D49319",
"OX c #D49419",
"+X c #D59419",
"@X c #D79418",
"#X c #D79419",
"$X c #D79519",
"%X c #D5941A",
"&X c #D6941A",
"*X c #D7951A",
"=X c #D7961A",
"-X c #D89418",
";X c #D89519",
":X c #D89619",
">X c #D8951A",
",X c #D8961A",
"<X c #D8971B",
"1X c #DA9B1F",
"2X c #DC9E22",
"3X c #C19830",
"4X c #C39B33",
"5X c #DEA226",
"6X c #DFA629",
"7X c #C9A137",
"8X c #D1AA3B",
"9X c #DCB33F",
"0X c #E1A92D",
"qX c #E0AA30",
"wX c #E1AB30",
"eX c #E3AD30",
"rX c #E3AF33",
"tX c #E2AF35",
"yX c #E1AF37",
"uX c #E1AF38",
"iX c #E5B034",
"pX c #E4B238",
"aX c #DCB440",
"sX c #E9C047",
"dX c #EAC34A",
"fX c #F1C94C",
"gX c #F1CB50",
"hX c #F3CD50",
"jX c #F3CE51",
"kX c #F4CF51",
"lX c #F4CF52",
/* pixels */
"                                                                                                                                ",
"                                                                                                                                ",
"                                                                                                                                ",
"                                                                                                                                ",
"                                                                                                                                ",
"                                                                                                                                ",
"                                                                                                                                ",
"                                                                              . . . . . 6                                       ",
"                                                                          j ^ :.:.:.:.:.Q j                                     ",
"                                                                        1 , P .X.X.X.X.X5., , 2                                 ",
"                                                                    . y.lX<XW.k.d.v.b.v.M.,X@X.X.                               ",
"                                                                    y.^.iXP.;.v v v v v A K.}.*XT /                             ",
"                                                                j 1 lXiX,Xb.D . . . . . < v.W.,X,XT .                           ",
"                                                              @ T.dX,XP.b.# l             o &.,X,XT .                           ",
"                                                              . N.pXW.;.D l               l ] &.*X>.d                           ",
"                                                              . :..Xv.v .                   l o *XE.d.&                         ",
"                                                          j . 5.V.u.<                       z @ *XP.d.&                         ",
"                                                          g . *XD.9..                       z # *XE.d.&                         ",
"                                                          g . ,XD.9..                       z @ ,XP.d.&                         ",
"                                                          g . ,XD.9..                       F o ,XE.v.&                         ",
"                                                          g . *XD.9..                       ) e |.C.+.0                         ",
"                                                          g . ,XD.9..                     . B.gXb.M .                           ",
"                                                              x 1.K.D G )               ) B.3X0Xd.M .                           ",
"                                                              . :..Xb.b o             h r hXeX.Xr.B @                           ",
"                                                              . :.*X,X,X*X+ . . . . . <.*X,XU.r..                               ",
"                                                              I 1.E.,X,X,XU I I I I I 3.Y.Y.! B $.                              ",
"                                                          . q *XF.n.,X*X,X,X*X-X*X-X,XA.v.v.d @                                 ",
"                                                        = ~.9X*XD.9., ; , i.n.n.n.n.n.i & #                                     ",
"                                                      . H 7XyX`.Q K       K R R R R R F j                                       ",
"                                                    = H kX5X}.d.y =       @ . . . . .                                           ",
"                                                  g ~.7X5XH.8.3                                                                 ",
"                                                . a aXyX}.8.` g                                                                 ",
"                                              . O.kX2XW.d.3 g                                                                   ",
"                                            . Q.(.0XU.Q u                                                                       ",
"                                          . 4 fX9X Xq.K =                                                                       ",
"                                        . B.hX,XE.i.&                                                                           ",
"                                      . y./.tXK.Q c                                                                             ",
"                                    . w kXwX&Xc.M .                                                                             ",
"                                  @ !.dX<XH.d.+                                                                                 ",
"                                .  .3XyXE.Q D                                                                                   ",
"                              6 N kX6X|.k.d @                                                                                   ",
"                            6 ).8X2XH.d.' | ..6                                                                                 ",
"                          . N 8XuX].8.[ { w.Z.t _                                                                               ",
"                        @  .kX2X].d.8 < d.W.,X,XT .                                                                             ",
"                      . !.4X0XI.-.9     9 ,.*XA.Z .                                                                             ",
"                    . . sXyX|.v.[ <     6 W 6.+.C 5                                                                             ",
"                  . y.lX,XW.b.^ { d.9 6   l . .                                                                                 ",
"                . &.R.0XI.p.} O.w.E.,.W l                                                                                       ",
"                ; *X*X*Xr.+.~ e.D.>X#X7..                                                                                       ",
"                & d.d.d.. s k.}.>X>XA.+..                                                                                       ",
"                  M M M   ( M _.{.7.E G $.                                                                                      ",
"                  . . .     . 5._.u.8 6                                                                                         ",
"                              p - &                                                                                             ",
"                                                                                                                                ",
"                                                                                                                                ",
"                                                                                                                                ",
"                                                                                                                                ",
"                                                                                                                                ",
"                                                                                                                                ",
"                                                                                                                                ",
"                                                                                                                                ",
"                                                                                                                                ",
"                                                                                                                                ",
"                                                                                                                                "
};
