/* XPM */
static char *_14819ff432a4a519a53df0ad7f7d720CgH3Hsm4s0z5d5W4[] = {
/* columns rows colors chars-per-pixel */
"64 64 19 1 ",
"  c None",
". c #2F2F2E",
"X c #443122",
"o c #7E3030",
"O c #6F4827",
"+ c #50565D",
"@ c #983636",
"# c #804020",
"$ c #A06040",
"% c #C0942D",
"& c #DAA935",
"* c #255190",
"= c #285DAA",
"- c #2D6AC5",
"; c #7E8590",
": c #9299A4",
"> c gray69",
", c #D4D4D7",
"< c white",
/* pixels */
"                                                                ",
"                                                                ",
"                                                                ",
"                                                                ",
"                                                                ",
"                                                                ",
"                                                                ",
"                                                                ",
"                                                                ",
"                                                                ",
"                          ....                                  ",
"                       ...@@@@....                              ",
"                      .@@@ooo@@@@@..                            ",
"                     .oo@o.oo@@@@@@@.  .                        ",
"                    .ooo@.>.ooo@@@@@@..>.                       ",
"                   .ooooo.><.o.....o@.<>.                       ",
"                  .oooooo.><..#####...<>.                       ",
"                 .ooooooo.><.#$$$$$$##.>.                       ",
"                 .ooooo...><<.$$$$$$$$#.                        ",
"                 .oooo.###><<<#$$$#$$$$.                        ",
"                ..oooo.####><#$##$$#$#$#.                       ",
"               .#.ooooo..#####.>>#$##$#>.                       ",
"              .###.oooooo.####.><<.##.><.                       ",
"             .#$$#.oooooo.#####...####..#.                      ",
"             .$$$$#.oooooo.#######$$$$$$$#.                     ",
"             .$$$$#.ooooooo.#######$$$$$$#.                     ",
"             .$$$$#.oooooooo.#######.....#.             ...     ",
"             .$$$$##.oooooooo.#####........        .....XO.     ",
"             .$$$$##.ooooooooo..###.%...&.      ...++++O..      ",
"             .#$$###.ooooooooooo.....%...&. ....+++::::::.      ",
"             .######..ooooooooo@ooooo.%&&...++++:::,,,,,,.      ",
"             .#$$$##.#.oooooooo@@@@@o.....OOO:::,,,,,,,,,,...   ",
"             .$$$$$#.##...ooo@@@@@...OOOOOX..,,,,,,,,,,,,,,,,.  ",
"             .$$$$$.######.o@@....OOOX.....  ..,,,,,,,,,,,,,.   ",
"             .$$$$$..####$....OOOOX...#$$$.   .,,,,,,,,,,,,<.   ",
"             .$$$$$##.....OOOOX......#####.  .,,,,,,,,,,,<<.    ",
"              .$$$$#.OOOOOOX...##$#. .####.  .<<<,,,,,,<<..     ",
"              .$$$##.OOX....$###$$#.  ....   ....<<<<<<..       ",
"             ..$$$$#....#$$$#####$.              ......         ",
"           ..X.#$$$##...##$$....$#.                             ",
"          .OO...#####.::....:;;;..                              ",
"           ..   ........::;;:;;;;:.                             ",
"                  .$$#.=....:;;;...                             ",
"                 .$$$#.=====....--..                            ",
"                 .$$$##.====-----.$$.                           ",
"                .$$$##..====----=.$$.                           ",
"                .$$##.*.=====--==.$$$.                          ",
"                .$$##.**.====-==.#$$#.                          ",
"                .####....=======.####.                          ",
"                .....   .........#...                           ",
"                .....            ....                           ",
"                                                                ",
"                                                                ",
"                                                                ",
"                                                                ",
"                                                                ",
"                                                                ",
"                                                                ",
"                                                                ",
"                                                                ",
"                                                                ",
"                                                                ",
"                                                                ",
"                                                                "
};
