/* XPM */
static char *_35edf58fa644d51e1f5e04992ac593eiz92JAdyZPZYAO6n[] = {
/* columns rows colors chars-per-pixel */
"64 64 20 1 ",
"  c None",
". c #2F2F2E",
"X c #4D0606",
"o c #750404",
"O c #730E0E",
"+ c #443122",
"@ c #6F4827",
"# c #50565D",
"$ c #8A2222",
"% c #EB3232",
"& c #804020",
"* c #A06040",
"= c #C0942D",
"- c #DAA935",
"; c #B4EB46",
": c #7E8590",
"> c #9299A4",
", c gray69",
"< c #D4D4D7",
"1 c white",
/* pixels */
"                                                                ",
"                                                                ",
"                                                                ",
"                                                                ",
"                                                                ",
"                                                                ",
"                                                                ",
"                                   ....                         ",
"                               ....;;;;...                      ",
"                             ..;;;;;;;;;;;.                     ",
"                         .  .;;;;;;;;;.;;;;.                    ",
"                        .,..;;;;;;;;;.,.;;;;.                   ",
"                        .,1.;;.....;.1,.;;;;;.                  ",
"                        .,1...&&&&&..1,.;;;;;;.                 ",
"                        .,.&&******&.1,.;;;;;;;.                ",
"                         .&********.11,...;;;;;.                ",
"                         .****&***&111,&&&.;;;;.                ",
"                        .&*&*&**&&*&1,&&&&.;;;;..               ",
"                        .X&*&&*&XX.&&&&&..;;;;;.&.              ",
"                        .OX.&&.OOX.&&&&.;;;;;;.&&&.             ",
"                       .&..&&&&...&&&&&.;;;;;;.&**&.            ",
"                      .&*******&&&&&&&.;;;;;;.&****.            ",
"                      .&******&&&&&&&.;;;;;;;.&****.            ",
"      ...             .&.....&&&&&&&.;;;;;;;;.&****.            ",
"      .@+.....        ........&&&&&.;;;;;;;;.&&****.            ",
"       ..@####...      .-...=.&&&..;;;;;;;;;.&&****.            ",
"       .>>>>>>###.... .-...=.....;;;;;;;;;;;.&&&**&.            ",
"       .<<<<<<>>>####...--=.;;;;;;;;;;;;;;;..&&&&&&.            ",
"    ...<<<<<<<<<<>>>@@@.....;;;;;;;;;;;;;;.&.&&***&.            ",
"   .ooo<<<<<<<<<<<<<..+@@@@@...;;;;;;;;...&&.&*****.            ",
"    .oo<o<<<<<<<<<..  .....+@@@....;;;.&&&&&&.*****.            ",
"    .1ooo<o<o<<o<o.   .***&...+@@@@....*&&&&..*****.            ",
"     .11ooo<o<ooooo.  .&&&&&......+@@@@.....&&*****.            ",
"      ..11oooooo111.  .&&&&. .&*&&...+@@@@@@.&****.             ",
"        ..111111....   ....  .&**&&&*....+@@.&&***.             ",
"          ......              .*&&&&&***&....&****..            ",
"                              .&*....**&&...&&***&.+..          ",
"                               ..:::>....>>.&&&&&...@@.         ",
"                              .>::::>::>>........   ..          ",
"                              ...:::>....$.&**.                 ",
"                             ..%%....$$$$$.&***.                ",
"                            .**.%%%%%$$$$.&&***.                ",
"                            .**.$%%%%$$$$..&&***.               ",
"                           .***.$$%%$$$$$.$.&&**.               ",
"                           .&**&.$$%$$$$.$$.&&**.               ",
"                           .&&&&.$$$$$$$....&&&&.               ",
"                            ...&.........   .....               ",
"                            ....            .....               ",
"                                                                ",
"                                                                ",
"                                                                ",
"                                                                ",
"                                                                ",
"                                                                ",
"                                                                ",
"                                                                ",
"                                                                ",
"                                                                ",
"                                                                ",
"                                                                ",
"                                                                ",
"                                                                ",
"                                                                ",
"                                                                "
};
