/* XPM */
static char *a373ddf12dd5422f9cd4231c55826f5diaQkIRg0gOU0qvOL[] = {
/* columns rows colors chars-per-pixel */
"64 64 4 1 ",
"  c None",
". c #385E44",
"X c #3B6849",
"o c #3B6949",
/* pixels */
"                                                                ",
"                                                                ",
"                                                                ",
"                                                                ",
"                                                                ",
"                                                                ",
"                                                                ",
"                                                                ",
"                                                                ",
"                                                                ",
"                                                                ",
"                                                                ",
"     o                .o             o                 o        ",
"    ooo      .o       .o            ooo       o       .o        ",
"    .oo      .o   .o .o             .oo       o   .o  .         ",
"      .      .oo .oooooo              .      .oo .oooooo        ",
"       o       ooo    .o               o     .oooo    .o        ",
"   o   o        oo                 o   o        oo              ",
"  .ooo o       o.o          .o    .ooo o        .o          .o  ",
"  .o ooo      .o.o          .o    .o ooo        .o          .o  ",
"      o      .o  oo        .oo        o          oo        .oo  ",
"      o     .o   .o      .oo          o          .o      .oo    ",
"      o    .o    .o    .ooo           o          .o    .ooo     ",
"      .oo  .o     .o    oo            .Xo         .o    oo      ",
"       .o  .o     .o   .o             ..o          o   .o       ",
"        .ooo       .oooo              ..           .oooo        ",
"        .o         .oX                .            .o           ",
"  .o    .o      .ooo.o            .o  ..        .ooo            ",
"  .o  .ooo      .oo.oX            .o   o        .oo             ",
"    o   o        .o.o               o   o        .o             ",
"    .ooo.        . .X               .ooo.        .              ",
"        o   .o  .o .X                   o   .o  .o              ",
"      .Xo   .ooo   .o                 .oo   .ooo                ",
"      .oo     .o   .X                 .Xo     .                 ",
"        o.o   .o   .XX                  o     .                 ",
"        .oooooo     .X                  .oooooo                 ",
"        .o.o        .oX                   .o                    ",
"        .o o         .X                    o                    ",
"        .o.oo  oo    .o                   .Xo  oo               ",
"        .o..ooo..o  .XX                   ..ooooX               ",
"       .o       .XXXXo                        ..o               ",
"       .o        .XX                            .o              ",
"      .o          .X                             o              ",
"     .o           .o                             .o             ",
"    .o             .o                            .o             ",
"   .o               .X                          .o              ",
"   .o                .o                        .oo              ",
"  .o                 .o                        .o               ",
"  .o                  .X                      .o                ",
"   o                  .o                      .o                ",
"                                                                ",
"                                                                ",
"                                                                ",
"                                                                ",
"                                                                ",
"                                                                ",
"                                                                ",
"                                                                ",
"                                                                ",
"                                                                ",
"                                                                ",
"                                                                ",
"                                                                ",
"                                                                "
};
