/* XPM */
static char *_e26029861e640c0c82f4c0389150f861TauW6wvjo5S1I1l[] = {
/* columns rows colors chars-per-pixel */
"64 64 7 1 ",
"  c None",
". c #2F2F2E",
"X c #5A5A59",
"o c #676767",
"O c gray43",
"+ c #828281",
"@ c gray54",
/* pixels */
"                                                                ",
"                                                                ",
"                                                                ",
"                                                                ",
"                                                                ",
"                                                                ",
"                                                                ",
"                                                                ",
"                                                                ",
"       ..................               ..............          ",
"      .++++++++++++++++++.             .++++++++++++++.         ",
"      .+@@@@@O@@@@@@@@@@+.            .+@@@@@O@@@@@@@@@..       ",
"      .+@@@@@@@@@@@@@OO@+.            .+@@@@@@@@@@@@@OO@+.      ",
"      .+@@@@@@@@@@@@@OO@+.            .+@@+@@@@@@@@@@OO@+.      ",
"      .+@@@@@@@@@@@@@@@@+.            .+@+@@@@@@@@@@@@@@+.      ",
"      .+@@@@@@@@@@@@@@@@+.             .+@@@@@@@@@@@@@@@+.      ",
"      .+@@@@@@@O@@@@@@@@+.            .+@@@@@@@O@@@@@@@@+.      ",
"      .+@@@OO@@@@@@@@@@@+.            .+@@@OO@@@@@@@@@@@+.      ",
"      .+@@@OO@@@@@@O@@@@+.            .+@@@OO@@@@@@O@@@@+.      ",
"      .+@@@@@@@@@@@@@@@@+.            .+@@@@@@@@@@@@@@@@+.      ",
"      .+O@@@@@@@@@@@@@@O+.            .+O@@@@@@@@@@@@@@O+.      ",
"      .XOOOOOOOOOOOOOOOOX.            .XOOOOOOOOOOOOOOOOX.      ",
"      .XOOOOOOOOOOOOOOOOX.            .XOOOOOOOOOOOOOOOOX.      ",
"      .XooooooooooooooooX.            .Xoooooooooooooooo.       ",
"      .XXXXXXXXXXXXXXXXXX.            .XXXXXXXXXXXXXXXXX.       ",
"      .X@@@@X@@@@@@X@@@@X.            .X@@@@X@@@@@@X@@X@X.      ",
"      .XOOOOXOOOOOOXOOOOX.            .XOOOOXOOOOOOXOXXXX.      ",
"      .XOOOOXOOOOOOXOOOOX.            .XOOOOXOOOOOOXXOOOX.      ",
"      .XooooXooooooXooooX.            .XooooXoooooXXooooX.      ",
"      .XXXXXXXXXXXXXXXXXX.            .XXXXXXXXXXXXXXXXXX.      ",
"      .X@@@@@@X@@X@@@@@@X.            .X@@@@@@XXXX@@XX@@X.      ",
"      .XOOOOOOXOOXOOOOOOX.            .XOOOOOXXXXXOOOOOOX.      ",
"      .XOOOOOOXOOXOOOOOOX.            .XOOOXXXXXXXOOOOXXX.      ",
"      .XooooooXooXooooooX.            .XXXXXXXXXoXooXXooX.      ",
"      .XXXXXXXXXXXXXXXXXX.             .XXXXXXXXXXXXXXXXX.      ",
"      .X@@X@@@@@@@@@@X@@X.              .XXXXX@@X@@@@X@@X.      ",
"      .XOOXOOOOOOOOOOXOOX.              .XXXOOXXOOOOOXOOX.      ",
"      .XOOXOOOOOOOOOOXOOX.              .XXOOOOOOOOOOXOOX.      ",
"      .XooXooooooooooXooX.              .XXooooooooooXooX.      ",
"     ..XXXXXXXXXXXXXXXXXX..          ...XXXXXXXXXXXXXXXXX..     ",
"    .@@X@@@@@X@@@@X@@@@@X@@.        .@@X@X@@@X@@@@X@@@@@X@@.    ",
"    .@@XOOOOOXOOOOXOOOOOX@@.        .@@XXOOOOXOOOOXOOOOOX@@.    ",
"    .@@XOOOOOXOOOOXOOOOOX@@.        .@@XOOOOOXOOOOXOOOOOX@@.    ",
"    .@@XoooooXooooXoooooX@@.        .@@XoooooXooooXoooooX@@.    ",
"    .@@XXXXXXXXXXXXXXXXXX@@.        .@@XXXXXXXXXXXXXXXXXX@@.    ",
"    .@@X@@X@@@@@@@@@@X@@X@@.        .@@X@@X@@@@@@@@@@X@@X@@.    ",
"    .@@XOOXOOOOOOOOOOXOOX@@.        .@@XOOXOOOOOOOOOOXOOX@@.    ",
"    .@@XOOXOOOOOOOOOOXOOX@@.        .@@XOOXOOOOOOOOOOXOOX@@.    ",
"    .@@XooXooooooooooXooX@@.        .@@XooXooooooooooXooX@@.    ",
"    .@@XXXXXXXXXXXXXXXXXX@@.        .@@XXXXXXXXXXXXXXXXXX@@.    ",
"    .@@@@@@@@@@@@@@@@@@@@@@.        .o@@@@@@@@@@@@@@O@@@@@@.    ",
"    .@@@@@@@@@@@@@@@@@@@@@@.         .o@@@@@@@@@@@OOoO@@@@@.    ",
"    .OOOOOOOOOOOOOOOOOOOOOO.         .ooOOOOOOOOOOoooOOOOOO.    ",
"    .oooooooooooooooooooooo.         .ooooooooooooooooooooo.    ",
"    .oooooooooooooooooooooo.        .oooooooooooooooooooooo.    ",
"    .oooooooooooooooooooooo.        .oooooooooooooooooooooo.    ",
"    .oooooooooooooooooooooo.        .oooooooooooooooooooooo.    ",
"                                                                ",
"                                                                ",
"                                                                ",
"                                                                ",
"                                                                ",
"                                                                ",
"                                                                "
};
