/* XPM */
static char *dab1f215222c47fabe2c1877e01cb564L7kgOfewg9Mv737s[] = {
/* columns rows colors chars-per-pixel */
"64 64 16 1 ",
"  c None",
". c #2F2F2E",
"X c #443122",
"o c #7E3030",
"O c #6F4827",
"+ c #50565D",
"@ c #983636",
"# c #804020",
"$ c #A06040",
"% c #C0942D",
"& c #DAA935",
"* c #285DAA",
"= c #9299A4",
"- c gray69",
"; c #D4D4D7",
": c white",
/* pixels */
"                                                                ",
"                                                                ",
"                                                                ",
"                                                                ",
"                                                                ",
"                                                                ",
"                                                                ",
"                                                                ",
"                                                                ",
"                                                                ",
"                                                                ",
"                                                                ",
"                                                                ",
"                                                                ",
"                                                                ",
"                                                                ",
"                                                                ",
"                                                                ",
"                          ....                                  ",
"                       ...@@@@....                              ",
"                      .@@@@@@@@@@@..                            ",
"                     .oo@@ooo@@@@@@@.                           ",
"                    .ooo@o.oo@@@@@@@@. .                        ",
"                   .ooooo.-.ooo@@@@@@@.-.                       ",
"                  .oooooo.-:.o.....o@.:-.                       ",
"              ....ooooooo.-:..#####...:-.                       ",
"             .###.ooooooo.-:.#$$$$$$##.-.                       ",
"            .#$$#.ooooo...-::.$$$$$$$$#.                        ",
"            .$$$#.oooo.###-:::#$$$#$$$$.                        ",
"            .$$$$#.ooo.####-:#$##$$#$#$#.                       ",
"            .$$$$#.oooo..######...$##$...                       ",
"            .$$$$##.ooooo.########.##.##.                       ",
"            .#$$###.ooooo.#####...####..#.                      ",
"            .######.oooooo.#######$$$$$$$#.                     ",
"            .#$$$##..oooooo.#######$$$$$$#.                     ",
"            .$$$$$#.#.oooooo.#######.....#.                     ",
"            .$$$$$.###.oooooo.#####........                     ",
"           ..$$$$$.####..ooooo..###.%...&.                      ",
"          .#.$$$$$#.####$.ooooo@....%...&.  ..............      ",
"         .$##.$$$$##.##$$$.ooo@@@@@@.%&&....+++++++++++OOX.     ",
"       ..$###.$$$##.....................OOOOX============..     ",
"      .$$$....$$$$#.XOOOOOOOOOOOOOOOO.........;;;;;;;;;;;;;.    ",
"      .$$.OOX.#$$$##.................#$$$.  .:::::;;;;:::::.    ",
"      ..##.....#####.*.#$$$.        .####.   .....::::.....     ",
"      .....................          ....         ....          ",
"                                                                ",
"                                                                ",
"                                                                ",
"                                                                ",
"                                                                ",
"                                                                ",
"                                                                ",
"                                                                ",
"                                                                ",
"                                                                ",
"                                                                ",
"                                                                ",
"                                                                ",
"                                                                ",
"                                                                ",
"                                                                ",
"                                                                ",
"                                                                ",
"                                                                "
};
